<?xml version="1.0" encoding="UTF-8" standalone="no"?>
<svg width="40px" height="40px" viewBox="0 0 40 40" version="1.1" xmlns="http://www.w3.org/2000/svg" xmlns:xlink="http://www.w3.org/1999/xlink" xmlns:sketch="http://www.bohemiancoding.com/sketch/ns">
    <!-- Generator: Sketch 3.3.3 (12081) - http://www.bohemiancoding.com/sketch -->
    <title>+</title>
    <desc>Created with Sketch.</desc>
    <defs/>
    <g id="Page-1" stroke="none" stroke-width="1" fill="none" fill-rule="evenodd" sketch:type="MSPage">
        <g id="Postings" sketch:type="MSArtboardGroup" transform="translate(-702.000000, -14.000000)">
            <g id="Header" sketch:type="MSLayerGroup" transform="translate(0.000000, -2.000000)">
                <g id="+" transform="translate(702.000000, 16.000000)" sketch:type="MSShapeGroup">
                    <circle id="Oval-61" fill="#36B994" cx="20" cy="20" r="20"/>
                    <path d="M26,21 L21,21 L21,26 C21,26.55 20.553,27 20,27 C19.447,27 19,26.55 19,26 L19,21 L14,21 C13.447,21 13,20.55 13,20 C13,19.45 13.447,19 14,19 L19,19 L19,14 C19,13.45 19.447,13 20,13 C20.553,13 21,13.45 21,14 L21,19 L26,19 C26.553,19 27,19.45 27,20 C27,20.55 26.553,21 26,21 L26,21 Z" id="Path-3" fill="#FFFFFF"/>
                </g>
            </g>
        </g>
    </g>
</svg>